<svg xmlns="http://www.w3.org/2000/svg" version="1.1" xmlns:xlink="http://www.w3.org/1999/xlink" xmlns:svgjs="http://svgjs.dev/svgjs" width="1000" height="348" viewBox="0 0 1000 348"><g transform="matrix(1,0,0,1,-0.6056348047761162,-0.31475553345913454)"><svg viewBox="0 0 396 138" data-background-color="#ffffff" preserveAspectRatio="xMidYMid meet" height="348" width="1000" xmlns="http://www.w3.org/2000/svg" xmlns:xlink="http://www.w3.org/1999/xlink"><g id="tight-bounds" transform="matrix(1,0,0,1,0.24008861730862918,0.12506396869508762)"><svg viewBox="0 0 395.52 137.75006521452144" height="137.75006521452144" width="395.52"><g><svg viewBox="0 0 395.52 137.75006521452144" height="137.75006521452144" width="395.52"><g><svg viewBox="0 0 395.52 137.75006521452144" height="137.75006521452144" width="395.52"><g id="textblocktransform"><svg viewBox="0 0 395.52 137.75006521452144" height="137.75006521452144" width="395.52" id="textblock"><g><svg viewBox="0 0 395.52 137.75006521452144" height="137.75006521452144" width="395.52"><path d="M394.594 29.545C392.735 15.246 387.435 11.271 387.435 11.271 371.165-3.456 350.86-0.282 332.619 1.834 300.414 1.92 268.339 5.066 236.208 6.753 168.767 7.01 100.749 2.778 33.643 13.216 27.339 16.419-6.54 13.845 1.121 31.375 3.129 38.667 10.456 46.76 10.232 53.452 11.236 54.624 12.631 51.936 13.226 53.623 15.309 58.17 18.711 56.025 21.501 58.714 17.614 65.891 20.403 71.868 23.062 78.131 18.377 79.761 12.371 78.989 9.675 84.393 9.396 88.311 7.89 87.568 6.235 87.396 5.026 87.282 2.59 87.711 2.999 88.94 4.394 93.144-1.594 95.575 2.162 99.693-0.422 104.154 3.948 108.014 3.353 112.847 3.278 113.82 3.687 114.649 4.338 114.878 7.22 116.107 3.018 118.509 3.464 121.112 33.029 138.899 65.104 126.602 95.394 134.781 103.259 129.062 97.346 136.811 100.489 135.61 102.943 134.209 104.728 140.014 107.499 136.726 107.927 135.782 107.276 133.551 108.8 133.98 109.6 134.209 110.307 134.152 110.418 132.836 110.586 130.863 109.117 132.093 108.726 131.063 112.947 125.859 111.906 138.241 115.866 137.727 115.68 136.211 114.528 134.038 116.889 134.323 119.232 132.15 119.306 130.349 121.389 135.239 121.463 136.297 121.835 137.04 122.43 137.555 128.938 132.236 135.409 139.442 142.233 137.04 146.417 134.409 150.433 138.47 154.672 137.469 156.16 136.668 157.666 135.239 159.098 137.641 176.632 138.155 195.319 136.011 211.943 137.727 256.364 134.524 303.835 139.042 350.674 134.81 361.719 133.18 373.192 130.863 383.958 129.004 383.958 129.004 392.679 123.914 392.679 101.037S394.538 81.019 394.817 62.803C395.096 44.587 396.398 43.843 394.538 29.545Z" opacity="1" fill="#6b7280" data-fill-palette-color="tertiary"></path><g transform="matrix(1,0,0,1,55.76832,26.230666666666668)"><svg width="283.98335999999995" viewBox="0 -29.5 151.49000549316406 45.5" height="85.2887318811881" data-palette-color="#ffffff"><path d="M4.5 0L0 0 0-29.5 4.5-29.5 4.5 0ZM7.5 0L6 0 6-29.5 7.5-29.5 7.5 0ZM13.5 0L9 0 9-29.5 13.5-29.5 13.5 0ZM21 0L19.5 0 19.5-29.5 21-29.5 21 0ZM24 0L22.5 0 22.5-29.5 24-29.5 24 0ZM9.2 15.95L9.2 4.35 16.3 4.35 16.3 5.5 10.4 5.5 10.4 9.3 15.3 9.3 15.3 10.5 10.4 10.5 10.4 14.8 16.25 14.8 16.25 15.95 9.2 15.95ZM27 0L25.5 0 25.5-29.5 27-29.5 27 0ZM37.5 0L33 0 33-29.5 37.5-29.5 37.5 0ZM40.5 0L39 0 39-29.5 40.5-29.5 40.5 0ZM46.5 0L42 0 42-29.5 46.5-29.5 46.5 0ZM49.5 0L48 0 48-29.5 49.5-29.5 49.5 0ZM52.5 0L51 0 51-29.5 52.5-29.5 52.5 0ZM58.5 0L54 0 54-29.5 58.5-29.5 58.5 0ZM64.5 0L60 0 60-29.5 64.5-29.5 64.5 0ZM67.5 0L66 0 66-29.5 67.5-29.5 67.5 0ZM75 0L73.5 0 73.5-29.5 75-29.5 75 0ZM60.2 15.95L60.2 4.35 63.9 4.35Q65.75 4.35 66.65 5.3L66.65 5.3Q67.59 6.2 67.59 7.65L67.59 7.65Q67.59 9.05 66.7 9.95L66.7 9.95Q65.8 10.85 64 10.85L64 10.85 61.55 10.85 61.55 15.95 60.2 15.95ZM61.55 9.7L63.85 9.7Q65.09 9.7 65.65 9.15L65.65 9.15Q66.25 8.65 66.25 7.7L66.25 7.7Q66.25 6.75 65.65 6.2L65.65 6.2Q65.05 5.6 63.9 5.6L63.9 5.6 61.55 5.6 61.55 9.7ZM80.99 0L76.49 0 76.49-29.5 80.99-29.5 80.99 0ZM83.99 0L82.49 0 82.49-29.5 83.99-29.5 83.99 0ZM86.99 0L85.49 0 85.49-29.5 86.99-29.5 86.99 0ZM94.49 0L92.99 0 92.99-29.5 94.49-29.5 94.49 0ZM100.49 0L95.99 0 95.99-29.5 100.49-29.5 100.49 0ZM92.24 15.95L91.09 12.55 87.34 12.55 86.19 15.95 84.89 15.95 89.14 4.15 89.29 4.15 93.59 15.95 92.24 15.95ZM87.69 11.55L90.74 11.55 89.24 7.15 87.69 11.55ZM106.49 0L101.99 0 101.99-29.5 106.49-29.5 106.49 0ZM109.49 0L107.99 0 107.99-29.5 109.49-29.5 109.49 0ZM112.49 0L110.99 0 110.99-29.5 112.49-29.5 112.49 0ZM118.49 0L113.99 0 113.99-29.5 118.49-29.5 118.49 0ZM125.99 0L124.49 0 124.49-29.5 125.99-29.5 125.99 0ZM111.14 15.95L111.14 4.35 114.54 4.35Q116.54 4.35 117.44 5.25L117.44 5.25Q118.39 6.1 118.39 7.7L118.39 7.7Q118.39 8.7 117.74 9.6L117.74 9.6Q117.09 10.5 116.04 10.8L116.04 10.8 118.74 15.95 117.29 15.95 114.69 10.85 112.44 10.85 112.44 15.95 111.14 15.95ZM112.44 9.7L114.69 9.7Q115.89 9.7 116.49 9.15L116.49 9.15Q117.04 8.65 117.04 7.7L117.04 7.7Q117.04 6.75 116.49 6.15L116.49 6.15Q115.89 5.6 114.69 5.6L114.69 5.6 112.44 5.6 112.44 9.7ZM131.99 0L127.49 0 127.49-29.5 131.99-29.5 131.99 0ZM134.99 0L133.49 0 133.49-29.5 134.99-29.5 134.99 0ZM137.99 0L136.49 0 136.49-29.5 137.99-29.5 137.99 0ZM140.99 0L139.49 0 139.49-29.5 140.99-29.5 140.99 0ZM151.49 0L146.99 0 146.99-29.5 151.49-29.5 151.49 0ZM142.69 16L138.69 10.15 137.74 11.15 137.74 15.95 136.39 15.95 136.39 4.35 137.94 4.35 137.94 4.5Q137.84 4.6 137.79 4.75L137.79 4.75Q137.74 4.85 137.74 5.2L137.74 5.2 137.74 9.7 142.59 4.3Q143.04 4.35 143.54 4.35L143.54 4.35 144.04 4.35 139.64 9.35 144.34 15.95 142.69 16Z" opacity="1" transform="matrix(1,0,0,1,0,0)" fill="#ffffff" class="wordmark-text-0" data-fill-palette-color="quaternary" id="text-0"></path></svg></g></svg></g></svg></g></svg></g><g></g></svg></g><defs></defs></svg><rect width="395.52" height="137.75006521452144" fill="none" stroke="none" visibility="hidden"></rect></g></svg></g></svg>